<svg xmlns="http://www.w3.org/2000/svg" version="1.1" width="600px" height="600px" viewBox="0 0 200 200" style="overflow:hidden!important;"><defs id="SvgjsDefs47468"></defs><g id="svga-group-wrapper"><g id="svga-group-backs-single"><path id="SvgjsPath48163" d="M0 0h200v200H0V0z" fill="#e5fcc2" stroke-width="none" opacity="1"></path><path id="SvgjsPath48164" d="M100 124.2c-13.3 0-24.2-10.8-24.2-24.2S86.7 75.8 100 75.8s24.2 10.8 24.2 24.2-10.9 24.2-24.2 24.2zm0-42.4c-10 0-18.2 8.2-18.2 18.2s8.2 18.2 18.2 18.2 18.2-8.2 18.2-18.2S110 81.8 100 81.8zm0 57.4c-21.6 0-39.2-17.6-39.2-39.2S78.4 60.8 100 60.8s39.2 17.6 39.2 39.2-17.6 39.2-39.2 39.2zm0-72.4c-18.3 0-33.2 14.9-33.2 33.2s14.9 33.2 33.2 33.2 33.2-14.9 33.2-33.2-14.9-33.2-33.2-33.2zm0 87.5c-29.9 0-54.3-24.4-54.3-54.3S70.1 45.7 100 45.7 154.3 70 154.3 100s-24.4 54.3-54.3 54.3zm0-102.6c-26.6 0-48.3 21.7-48.3 48.3 0 26.6 21.7 48.3 48.3 48.3 26.6 0 48.3-21.7 48.3-48.3 0-26.6-21.7-48.3-48.3-48.3zm0 116.4c-37.6 0-68.1-30.6-68.1-68.1S62.4 31.9 100 31.9s68.1 30.6 68.1 68.1-30.5 68.1-68.1 68.1zm0-130.2c-34.2 0-62.1 27.9-62.1 62.1s27.9 62.1 62.1 62.1 62.1-27.9 62.1-62.1-27.9-62.1-62.1-62.1zm0 146.2c-46.4 0-84.1-37.7-84.1-84.1S53.6 15.9 100 15.9s84.1 37.7 84.1 84.1-37.7 84.1-84.1 84.1zm0-162.2c-43.1 0-78.1 35-78.1 78.1s35 78.1 78.1 78.1 78.1-35.1 78.1-78.1-35-78.1-78.1-78.1zm0 90c-6.6 0-11.9-5.4-11.9-11.9 0-6.6 5.4-11.9 11.9-11.9 6.6 0 11.9 5.4 11.9 11.9 0 6.6-5.3 11.9-11.9 11.9zm0-17.8c-3.3 0-5.9 2.7-5.9 5.9 0 3.3 2.7 5.9 5.9 5.9 3.3 0 5.9-2.7 5.9-5.9 0-3.3-2.6-5.9-5.9-5.9zM0 146.7v12.8c9.9 16.6 23.9 30.6 40.5 40.5h12.8C29.9 189 11 170.1 0 146.7zm200 0c-11 23.4-29.9 42.3-53.3 53.3h12.8c16.6-9.9 30.6-23.9 40.5-40.5v-12.8zm0-93.4V40.5C190.1 23.9 176.1 9.9 159.5 0h-12.8C170.1 11 189 29.9 200 53.3zm-200 0C11 29.9 29.9 11 53.3 0H40.5C23.9 9.9 9.9 23.9 0 40.5v12.8zm200 36.3C195.1 42.5 157.6 4.9 110.4 0H89.6C42.5 4.9 4.9 42.5 0 89.6v20.8c4.9 47.1 42.5 84.7 89.6 89.6h20.8c47.1-4.9 84.7-42.4 89.6-89.6V89.6zM100 194.5c-52.1 0-94.5-42.4-94.5-94.5S47.9 5.5 100 5.5s94.5 42.4 94.5 94.5-42.4 94.5-94.5 94.5zM0 176.2v9.5c4.4 5.1 9.1 9.9 14.3 14.3h9.5c-9-6.8-17-14.8-23.8-23.8zm200 0c-6.8 8.9-14.8 16.9-23.8 23.8h9.5c5.1-4.4 9.9-9.1 14.3-14.3v-9.5zM0 23.8c6.8-9 14.8-17 23.8-23.8h-9.5C9.1 4.4 4.4 9.1 0 14.3v9.5zm200 0v-9.5c-4.4-5.1-9.1-9.9-14.3-14.3h-9.5c9 6.8 17 14.8 23.8 23.8z" fill="#ceed9f" stroke-width="none" opacity="1"></path></g><g id="svga-group-humanwrap-move" transform="matrix(1,0,0,1,0,0)"><g id="svga-group-humanwrap" transform="matrix(1,0,0,1,0,0)"><g id="svga-group-hair-back-move" transform="matrix(1,0,0,1,0,0)"><g id="svga-group-hair-back" transform="matrix(1,0,0,1,0,0)"></g></g><g id="svga-group-humanbody-back"><path id="SvgjsPath47869" d="M166.5 181.1c-10.9-6.6-27.6-8.4-35-12.1-4.9-2.5-9.1-4.7-8.9-17.8s1.9-42.4 1.9-42.4H75.4s1.6 29.4 1.9 42.4-4.2 15.6-8.9 17.8c-7.4 3.5-24.1 5.4-35 12.1-10.8 6.6-10 18.9-10 18.9v19.7h153.3V200c-.1 0 .7-12.3-10.2-18.9z" fill="#d79468" stroke-width="none" opacity="1" stroke="none"></path></g><g id="svga-group-chinshadow-single"><path id="SvgjsPath48129" d="M93 163.2c2.6 1.6 11.4 1.6 14 .1 4.5-2.5 10.6-9.1 15.6-14 .3-13.8 1.9-40.5 1.9-40.5H75.4s1.4 26.5 1.8 40.3c5.1 4.9 11.2 11.6 15.8 14.1z" fill="#b86934" stroke-width="none" opacity="0.65" stroke="none"></path></g><g id="svga-group-humanbody-front"><path id="SvgjsPath47870" d="M78.7 156.8c.5 4.8 1.7 9.4 3.1 13.9.8 2.3 1.6 4.6 2.6 6.9.8 2 1.7 4.2 3.1 5.9.3.4 1 0 .9-.5-.5-2.2-1.6-4.3-2.4-6.4-.9-2.2-1.7-4.4-2.5-6.6-1.5-4.4-2.8-8.9-4.1-13.3-.2-.4-.8-.3-.7.1zm41.3-1c-1.3 8.2-3.9 16.1-5.4 24.2-.1.4.4.5.6.2 3.1-7.7 4.1-16.1 5.1-24.3-.1-.2-.3-.2-.3-.1zm-25.8 11.9c-.9 3.6 1.9 8.6 6.2 7.6.5-.1.4-.8 0-1-1.4-.5-2.9-.9-3.9-2.1-1.1-1.2-1.5-2.9-1.4-4.5 0-.4-.8-.5-.9 0z" fill="#b86934" stroke-width="none" opacity="1" stroke="none"></path><path id="SvgjsPath47871" d="M177.3 219.7c-.1-6.6-.3-13.1-.3-19.7l-.3-.3c.1 0 .1 0 .2.1s.1.2.1.1v-1.4c0-.5-.1-.9-.1-1.4-.1-.9-.3-1.9-.5-2.8-.5-1.8-1.1-3.6-2-5.3-1.7-3.4-4.4-6.2-7.7-8.1-3.6-2.2-7.6-3.8-11.6-5.1-4-1.3-8.1-2.4-12.1-3.5-4-1.2-8.1-2.2-11.8-4.2-1.9-1-3.6-2.1-4.8-3.6-1.2-1.6-1.9-3.5-2.3-5.5-.8-4-.4-8.2-.3-12.4l.7-12.6 1.5-25.2.1-1.4h-1.4c-8.2 0-16.4 0-24.6.1l-24.6.3h-.9l.1.9c.8 11.9 1.6 23.8 2.1 35.7.1 3 .3 6 .2 8.9-.1 2.9-.4 5.9-1.6 8.6-.6 1.3-1.4 2.5-2.4 3.5s-2.3 1.8-3.6 2.4c-2.6 1.3-5.4 2.2-8.3 3-5.8 1.5-11.6 2.8-17.3 4.7-2.8.9-5.7 2-8.4 3.4-1.3.7-2.7 1.4-4 2.4-1.3.9-2.4 1.9-3.5 3.1-2.1 2.3-3.6 5.2-4.5 8.1-.5 1.5-.8 3-1 4.6-.1.8-.1 1.6-.1 2.4v2.3l-.2 17.9v1.3h1.4l38.3.2c12.8.1 25.5.1 38.3 0 12.8-.1 25.6-.1 38.3-.3 12.8-.2 25.6-.5 38.3-.7h.6v-.5zm-77.2-1.6H61.8l-37 .2-.1-16.6v-2.2c0-.7 0-1.4.1-2.1.1-1.4.4-2.8.8-4.2.8-2.7 2.1-5.3 3.9-7.5.9-1.1 2-2.1 3.1-2.9 1.1-.9 2.4-1.6 3.7-2.3 2.6-1.4 5.3-2.5 8.1-3.5 5.6-2 11.4-3.4 17.1-5.1 2.9-.8 5.8-1.7 8.5-3.1 1.3-.7 2.7-1.5 3.8-2.6 1.1-1.1 2-2.4 2.6-3.9 1.2-2.9 1.5-5.9 1.6-8.9 0-3-.1-6-.2-9l-1.3-34.8 23.5.4c7.7.1 15.4.1 23.1.1-.4 7.9-.8 15.9-1.1 23.8-.2 4.2-.2 8.4-.3 12.6 0 4.2-.2 8.5.8 12.8.5 2.1 1.3 4.2 2.8 6 1.4 1.7 3.4 2.9 5.3 3.8 3.9 1.9 8 2.8 12.1 3.8s8.2 2 12.2 3.3c4 1.3 7.9 2.8 11.5 5 3.2 1.9 5.8 4.7 7.5 8 .9 1.6 1.5 3.4 1.9 5.2.2.9.4 1.8.4 2.7.1.5.1.9.1 1.4V200l-.3 19c-12.6-.2-25.1-.5-37.7-.7-12.7-.1-25.5-.1-38.2-.2z" fill="#a9561f" stroke-width="none" opacity="1" stroke="none"></path></g><g id="svga-group-clothes-single"><path id="SvgjsPath48011" d="M129.8 165.2c-1.6-4-5.9-16.6-5.9-16.6-1.3 3.6-4.1 12-9 16-4.3 3.6-13 11.4-14.8 13-1.8-1.6-10.5-9.4-14.8-13-4.9-4-7.6-12.2-8.9-15.8 0 0-4.4 12.4-6 16.5 0 0 6.3 26.5 8.6 31.5 0 0 .1-.1.2-.4.3 2.6.7 5.1 1.3 7.3 2.9 10.7 8.6 17.9 8.6 17.9h21.7s10.3-13.7 11.6-23.8c.2-1.9.4-3.9.4-5.8 2.8-9.3 7-26.8 7-26.8z" fill="#ffffff" stroke-width="none" opacity="1"></path><path id="SvgjsPath48012" d="M96 196.2s-5.3-10.6-5.9-13.8c0 0 11.2-12.1 20.3 1.1l-5.2 12.7s3.3 17.4 3.3 23.9H92.1s1.3-16.5 3.9-23.9z" fill="#222222" stroke-width="none" opacity="1"></path><path id="SvgjsPath48013" d="M110.8 183.2c-2.7-3.9-5.9-6.1-9.5-6.4-6.3-.5-11.4 5-11.6 5.2-.1.1-.2.3-.1.4.5 3 5.1 12.2 5.8 13.7-2.6 7.5-3.8 23.2-3.9 23.8 0 .1 0 1.3.1 1.4s.2.2.4.2h16.4c.3 0 .5-1.2.5-1.5 0-6.3-2.9-22-3.3-23.9l5.2-12.5c.1 0 .1-.2 0-.4zm-6.1 12.8c0 .1-.1.2 0 .3 0 .2 3.1 16.5 3.3 23.3H92.6c.2-2.9 1.6-16.7 3.9-23.2.1-.1 0-.3 0-.4-.1-.1-5.1-10-5.8-13.4.9-.9 5.5-5.1 10.6-4.7 3.2.2 6.1 2.1 8.6 5.7l-5.2 12.4z" fill="#3a0538" stroke-width="none" opacity="1"></path><path id="SvgjsPath48014" d="M97.1 188.9c-.9 2.4 1.6 7 1.6 7 .5-4.1-.7-9.4-1.6-7zm6.4-1.6c-1.7.7-1.8 7.9-1.8 7.9 1.8-2.8 3.5-8.6 1.8-7.9zm-.8 14.9c0 1.1.2 5.5 1.4 4.1 1.2-1.4-1.2-7.8-1.2-7.8s-.2 2.6-.2 3.7zm-3.7 2.9c-.5 3.9 1.4 5.2 1.7 2.4.3-2.8-.3-9.2-.3-9.2s-.9 2.9-1.4 6.8zm-2.2-1.4c.7 1.4 1.4-3.3 1.2-5 0-.1-1.9 3.6-1.2 5z" fill="#000000" stroke-width="none" opacity="1"></path><path id="SvgjsPath48015" d="M71.3 157.1s-10.6 8-16.5 10.6l2.3 2.6s-22.3 5.2-26.9 6.7-6.7 3.6-6.7 3.6-1.7-1.3-4.2.2-3.6 39.4-3.6 39.4h72.6s-10.9-23.9-17.6-58.4c.1-.1.6-2.6.6-4.7zm112.9 63s-1.1-37.9-3.6-39.4-4.2-.2-4.2-.2-2.1-2.1-6.7-3.6-26.9-6.7-26.9-6.7l2.3-2.6c-5.9-2.5-16.5-10.6-16.5-10.6 0 2.1.6 4.6.6 4.6-6.7 34.5-17.6 58.4-17.6 58.4l72.6.1z" fill="#591956" stroke-width="none" opacity="1"></path><path id="SvgjsPath48016" d="M184.1 198c-.3-3.7-.6-7.4-1.1-11-.3-1.9-.5-3.7-1.1-5.6-.1-.2-.2-.5-.4-.8-.1-.1-.2-.3-.4-.4l-.4-.2c-.4-.2-.9-.4-1.5-.5-.9-.2-1.8-.1-2.7.3-2.4-1.9-5.1-2.9-7.8-3.6-2.9-.8-5.8-1.4-8.6-2.1l-16.7-4 2-2.1.1-.1c.1-.2 0-.4-.2-.5-1.5-.6-2.9-1.5-4.2-2.3-1.4-.9-2.7-1.8-4.1-2.7-2.7-1.9-5.3-3.8-7.9-5.8-.1-.1-.3-.2-.4-.2l-1.2.3s-3-7.8-3.7-8.7c-.6 1.3-1.4 4.2-4 9.4-1.1 1.9-3 4.5-5.5 6.5-2.7 2.1-5.2 4.3-7.7 6.5-2.2 1.9-4.3 3.9-6.4 5.8-2.1-1.9-4.2-3.9-6.4-5.8-2.5-2.2-5.1-4.4-7.7-6.4-7.4-6.9-7.1-10-9.2-15-.3-.5-.5-.5-.5-.5l-3.8 7.9c-.2-.1-1.4 0-1.6.1-2.6 2-5.2 3.9-7.8 5.8-1.3.9-2.7 1.8-4.1 2.7-1.4.9-2.8 1.7-4.2 2.3 0 0-.1 0-.1.1-.2.1-.2.4 0 .5l2 2.1-16.7 4c-2.9.7-5.7 1.4-8.6 2.1-2.8.7-5.5 1.8-7.8 3.6-.9-.4-1.8-.5-2.7-.3-.5.1-1 .3-1.5.5-.1.1-.2.1-.4.2l-.4.4c-.2.3-.3.5-.4.8-.6 1.9-.9 3.7-1.1 5.6-.5 3.7-.8 7.4-1.1 11-.5 7.4-.9 14.7-1.2 22.1 0 .6.5 1.1 1.1 1.1 12.2 0 24.9.5 37.1.3l36.2.1c-.1-.4-.8-2.1-.9-2.4l-.3-.9-.7-1.8c-.4-1.2-.9-2.4-1.3-3.6-.8-2.4-1.7-4.8-2.5-7.2-1.2-3.5-2.2-7-3.3-10.5.9-1.6 1.9-3.2 3-4.7.8-1 1.6-1.9 2.4-2.8.4-.4.9-.8 1.4-1.2l1.5-1.2c1-.8 1.9-1.7 2.8-2.7.4-.5.9-1 1.2-1.5.2-.2.4-.5.6-.6.1-.1.3-.3.6-.4.9-.5 2.1-.9 3.3-1.2.6-.1 5.7-.1 6.3 0 1.2.3 2.3.6 3.3 1.2.2.1.4.3.6.4l.6.6 1.2 1.5c.9 1 1.8 1.8 2.8 2.7l1.5 1.2c.5.4.9.8 1.4 1.2.9.8 1.7 1.8 2.4 2.8 1.1 1.5 2.1 3.1 3 4.7-1.1 3.5-2.1 7-3.3 10.5-.8 2.4-1.6 4.8-2.5 7.2-.4 1.2-.9 2.4-1.3 3.6l-.7 1.8-.3.9c-.1.3-1 1.9-1.1 2.4l36.7-.7c12.2.2 24.5.4 36.7.3.6 0 1-.5 1-1.1-.4-7.3-.8-14.6-1.3-22zM16.9 219c.2-7 .4-14 .8-20.9.2-3.7.5-7.3.9-10.9.2-1.8.4-3.7.9-5.3.1-.2.1-.4.2-.5 0-.1.1-.1 0-.1 0 0 .1-.1.2-.1.4-.2.7-.4 1.1-.4.7-.2 1.6-.1 2.1.2.2.1.5.1.6 0 1.8 2.7 3.1 5.6 4 8.6.5 1.6.8 3.2 1 4.9.2 1.7.5 3.3.6 5l1.1 10.1c.4 3.1.8 6.3 1.3 9.4H16.9zm34.8.4-19.6-.3c.2-3.2.2-6.4.1-9.6-.1-3.4-.3-6.8-.7-10.3-.2-1.7-.4-3.4-.8-5.1-.3-1.7-.8-3.4-1.4-5.1-1.2-3.1-3-5.9-5.4-8.1 1-.9 2.2-1.7 3.5-2.3 1.3-.6 2.6-1.1 4.1-1.6 2.8-.8 5.7-1.6 8.5-2.3 5.7-1.4 11.5-2.9 17.2-4.1.6.6 1.2 1.1 2 1.6-.2.2-.5.3-.7.5-1.2.8-2.5 1.6-3.7 2.3-.3.2-.5.6-.4 1 1.5 3.8 3.1 7.6 4.7 11.4 1.6 3.8 3.3 7.5 5 11.2 1.8 3.7 3.6 7.4 5.5 11 1 1.8 1.9 3.6 3 5.4 1 1.7 2 3.3 3.1 4.9l-24-.5zm33.5-6.2c.5 1.2 1 2.4 1.5 3.5.3.6.5 1.2.8 1.7l.4.9c.2.3.2.6.4.8l-12.4-.2c-1.8-3.6-3.4-7.2-5-10.8L66 197.7l-5-11.2-4.8-10.6c2.3-1.5 4.5-3.2 6.6-4.9 1.1-.9 2.3-1.9 3.4-2.9s2.2-1.9 3.3-3c-2.4 1.7-4.8 3.4-7.3 5-.9.6-1.7 1.2-2.6 1.8-.5-.8-1.1-1.5-1.7-2.2-.7-.6-1.3-1.2-2.2-1.7l-.3-.3c1.4-.6 2.7-1.3 4-2 1.4-.8 2.8-1.7 4.2-2.5 2.3-1.5 4.6-3 6.8-4.6-.1 1-.3 1.9-.5 2.9v.3c.9 5 2 10 3.3 15 1.2 5 2.6 9.9 4.1 14.7s3.2 9.7 5 14.5c.9 2.5 1.9 4.8 2.9 7.2zm11.2-36.1c-1.3.4-2.5.8-3.8 1.5-.3.2-.6.4-.9.7-.2.3-.4.5-.6.8-.4.5-.8 1-1.1 1.5-.8.9-1.6 1.8-2.5 2.6-.4.4-.9.9-1.4 1.3-.5.4-1 .9-1.4 1.4-.9 1-1.6 2-2.4 3.1-.9 1.4-1.8 2.9-2.5 4.3-.3-1-.6-2.1-.9-3.1-1.4-4.9-2.7-9.8-3.9-14.7-1.2-4.7-2.2-9.4-3.2-14.1.1-.3.1-.6.2-1 .2-1.4 1.8-4.9 2.8-7.6l1.5-4.7c0 .1.6 2.1 1.5 5.2 1.4 3.6 4.6 8.6 7.2 10.9 2.5 2.2 4.7 4.6 7.2 6.9l5.5 4.9c-.5-.1-.9 0-1.3.1zm21.3 12.8c-.7-1.1-1.5-2.1-2.4-3.1-.4-.5-.9-.9-1.4-1.4-.5-.4-.9-.8-1.4-1.3-.9-.9-1.8-1.7-2.5-2.6-.4-.5-.7-.9-1.1-1.5-.2-.3-.4-.5-.6-.8-.3-.3-.6-.5-.9-.7-1.2-.7-2.5-1.1-3.8-1.5-.4-.1-.8-.2-1.3-.3l5.5-4.9c2.5-2.2 4.6-4.4 7.1-6.6 5-4.9 6.6-9.1 7.5-11.9 1.1-3.5 1.3-4.1 1.3-4.2 0 0 1.1 3.2 2.1 6.1.7 2 2.3 6.7 2.3 7-1 4.7-2 9.4-3.2 14.1-1.2 4.9-2.5 9.8-3.9 14.7-.3 1.1-.6 2.1-.9 3.1-.7-1.3-1.5-2.8-2.4-4.2zm-6 30.2c.2-.1.3-.5.4-.8l.4-.9c.3-.6.5-1.2.8-1.7.5-1.2 1-2.3 1.5-3.5 1-2.4 2-4.7 2.8-7.1 1.8-4.8 3.5-9.6 5-14.5s2.9-9.8 4.1-14.7c1.3-4.9 2.3-9.9 3.3-15v-.3c-.2-.9-.4-1.9-.5-2.9 2.2 1.6 4.5 3.1 6.8 4.6 1.4.9 2.8 1.7 4.2 2.5 1.3.7 2.6 1.4 3.9 2l-.3.3c-.8.5-1.5 1.1-2.1 1.7-.6.6-1.2 1.4-1.7 2.2-.9-.6-1.8-1.1-2.6-1.8-2.4-1.6-4.8-3.4-7.3-5l3.3 3c1.1 1 2.2 1.9 3.4 2.9 2.1 1.7 4.2 3.4 6.6 4.9l-4.8 10.6-5 11.2L129 209c-1.6 3.6-3.2 7.3-5 10.8l-12.3.3zm36.6-.7-24.2.5c1.1-1.6 2.2-3.2 3.1-4.9 1.1-1.8 2-3.6 3-5.4 1.9-3.6 3.7-7.3 5.5-11 1.7-3.7 3.4-7.4 5.1-11.2 1.6-3.8 3.2-7.5 4.7-11.4.1-.4 0-.8-.4-1-1.2-.7-2.5-1.5-3.7-2.3-.2-.2-.5-.3-.7-.5.8-.4 1.4-1 2-1.6 5.8 1.3 11.5 2.7 17.2 4.1 2.9.7 5.7 1.5 8.5 2.3 1.4.4 2.8.9 4.1 1.6 1.3.6 2.5 1.4 3.5 2.3-2.4 2.2-4.1 5.1-5.4 8.1-.7 1.6-1.1 3.4-1.4 5.1-.3 1.7-.6 3.4-.8 5.1-.4 3.4-.6 6.8-.7 10.3-.1 3.2-.1 6.4.1 9.6-6.4 0-12.9.1-19.5.3zm19.7-.3c.5-3.1.9-6.3 1.3-9.4l1.1-10.1c.2-1.7.4-3.4.6-5 .2-1.7.6-3.3 1.1-4.9.9-3 2.2-5.9 4-8.6.2.1.4.1.6 0 .5-.3 1.4-.4 2.1-.2.4.1.8.2 1.1.4.1 0 .2.1.2.1v.1c.1.1.1.3.2.5.5 1.6.7 3.5.9 5.3.4 3.6.6 7.3.9 10.9.4 7 .7 13.9.8 20.9-4.8-.1-9.8-.1-14.9 0z" fill="#3a0538" stroke-width="none" opacity="1"></path></g><g id="svga-group-head" transform="matrix(1,0,0,1,0,0)"><g id="svga-group-ears-left-move" transform="matrix(1,0,0,1,0,0)"><g id="svga-group-ears-left" transform="matrix(1,0,0,1,0,0)"><path id="SvgjsPath48041" d="M61.3 90s-2.5-2.4-5.4-3.5-6.1.7-7.1 3.7c-1 2.9 1.3 15.1 5 19.5s6.2 4.8 8.7 2.5c2.5-2.3 7-10.8-1.2-22.2z" fill="#d79468" stroke-width="none" opacity="1" stroke="none"></path><path id="SvgjsPath48042" d="M62.6 91.8c.4.6.8 1.3 1.2 1.9.4.6.7 1.4 1.1 2 .3.7.6 1.4.9 2.2.2.8.5 1.5.6 2.4.1.4.2.8.2 1.2l.1 1.2c0 1.7-.2 3.4-.7 4.9-.5 1.6-1.2 3-2.2 4.2-.2.3-.5.6-.8.8-.3.2-.6.5-.9.7-.6.4-1.3.7-2.1.8-.7.1-1.5 0-2.2-.3s-1.3-.7-1.8-1.2c-.6-.5-1.1-1-1.6-1.6s-.9-1.1-1.4-1.8c-1.7-2.6-2.6-5.7-3.4-8.7-.4-1.5-.8-3-1.1-4.6s-.6-3.2-.5-4.9c0-.4.1-.9.2-1.3.1-.2.1-.4.2-.6l.3-.6c.4-.7.9-1.3 1.5-1.8 1.2-1 2.6-1.4 4-1.2.7.1 1.4.3 2 .6.6.3 1.2.7 1.8 1.1 1.2.8 2.3 1.6 3.3 2.6l1.3 2zm-4.7-4.1c-.6-.3-1.2-.6-1.8-.8-.6-.2-1.2-.3-1.8-.3-1.2.1-2.3.6-3.3 1.4-.5.4-.9.9-1.2 1.5-.2.3-.3.6-.4.9-.1.3-.2.6-.2.9-.2 1.4-.1 3 .1 4.6.2 1.5.4 3.1.8 4.6.8 3 1.9 6 3.6 8.2.9 1.1 1.9 2.1 3 2.9s2.2 1.3 3.3 1.1c.5-.1 1.1-.3 1.6-.7.5-.4 1-.8 1.4-1.3.8-1 1.5-2.3 1.9-3.7.5-1.4.7-2.8.7-4.3s-.2-3-.4-4.5c-.6-3-2-5.8-3.7-8.2-1.3-.9-2.4-1.7-3.6-2.3z" fill="#c87d4d" stroke-width="none" opacity="1" stroke="none"></path><path id="SvgjsPath48043" d="M52.6 89.6c3.3.6 5.4 6.1 6 9.8.1.1.1.2.2.3.4.6-.4 1.2-.8.6-.5-.8-1-1.6-1.8-1.9-1.4-.5-2.1 1.1-1.8 2.6.4 1.9 1.6 3 2.6 4.4.1.1 0 .3-.1.2-1.7-1-4.3-4.8-3.1-7.2.9-1.7 2.3-1.4 3.4-.4-.8-2.1-1.4-4.3-3-5.9-.5-.5-1.5-1.4-2.2-1.3-1.3.2-1.3 2.1-1.3 3.4-.1 1.7.1 3.4.4 5 0 .2-.2.2-.3.1-.7-2.4-2-10.4 1.8-9.7z" fill="#b86934" stroke-width="none" opacity="1" stroke="none"></path></g></g><g id="svga-group-ears-right-move" transform="matrix(1,0,0,1,0,0)"><g id="svga-group-ears-right" transform="matrix(1,0,0,1,0,0)"><path id="SvgjsPath48044" d="M138.7 90s2.5-2.4 5.4-3.5 6.1.7 7.1 3.7c1 2.9-1.3 15.1-5 19.5s-6.2 4.8-8.7 2.5c-2.5-2.3-7-10.8 1.2-22.2z" fill="#d79468" stroke-width="none" opacity="1" stroke="none"></path><path id="SvgjsPath48045" d="M138.6 89.9c1.1-1 2.2-1.8 3.3-2.6.6-.4 1.2-.7 1.8-1.1.6-.3 1.3-.6 2-.6 1.4-.2 2.8.3 4 1.2.6.5 1.1 1.1 1.5 1.8l.3.6c.1.2.2.4.2.6.1.4.2.9.2 1.3.1 1.7-.2 3.3-.5 4.9s-.7 3.1-1.1 4.6c-.9 3-1.8 6-3.4 8.7-.4.7-.9 1.2-1.4 1.8-.5.6-1 1.1-1.6 1.6s-1.2.9-1.8 1.2c-.7.3-1.4.4-2.2.3-.7-.1-1.4-.4-2.1-.8-.3-.2-.6-.4-.9-.7-.3-.3-.6-.5-.8-.8-1-1.2-1.7-2.6-2.2-4.2s-.7-3.3-.7-4.9l.1-1.2c0-.4.1-.8.2-1.2.1-.8.4-1.6.6-2.4.3-.7.6-1.5.9-2.2.4-.7.7-1.4 1.1-2 .4-.6.8-1.3 1.2-1.9l1.3-2zm.1.1c-1.7 2.4-3 5.2-3.7 8.2-.3 1.5-.5 3-.4 4.5s.3 2.9.7 4.3 1.1 2.6 1.9 3.7c.4.5.8 1 1.4 1.3.5.4 1 .6 1.6.7 1.1.2 2.2-.3 3.3-1.1 1-.8 2.1-1.8 3-2.9 1.7-2.3 2.8-5.2 3.6-8.2.4-1.5.6-3.1.8-4.6s.3-3.1.1-4.6c0-.4-.1-.6-.2-.9-.1-.3-.3-.6-.4-.9-.3-.6-.7-1-1.2-1.5-.9-.8-2.1-1.3-3.3-1.4-.6 0-1.2.1-1.8.3-.6.2-1.2.5-1.8.8-1.4.6-2.5 1.4-3.6 2.3z" fill="#c87d4d" stroke-width="none" opacity="1" stroke="none"></path><path id="SvgjsPath48046" d="M147.4 89.6c-3.3.6-5.4 6.1-6 9.8-.1.1-.1.2-.2.3-.4.6.4 1.2.8.6.5-.8 1-1.6 1.8-1.9 1.4-.5 2.1 1.1 1.8 2.6-.4 1.9-1.6 3-2.6 4.4-.1.1 0 .3.1.2 1.7-1 4.3-4.8 3.1-7.2-.9-1.7-2.3-1.4-3.4-.4.8-2.1 1.4-4.3 3-5.9.5-.5 1.5-1.4 2.2-1.3 1.3.2 1.3 2.1 1.3 3.4.1 1.7-.1 3.4-.4 5 0 .2.2.2.3.1.7-2.4 2-10.4-1.8-9.7z" fill="#b86934" stroke-width="none" opacity="1" stroke="none"></path></g></g><g id="svga-group-faceshape-wrap" transform="matrix(1,0,0,1,0,0)"><g id="svga-group-faceshape-single"><path id="SvgjsPath48119" d="M143.2 82.9v-.3c-1.3-30.5-20.7-47.3-43.2-47.3S58.1 52.1 56.9 82.6v.3c0 2.4-.5 15.6 3.1 26.5 3.2 9.8 5.7 17.5 13.5 24.1 5.5 4.6 13.8 14.7 19.6 17.9 2.6 1.4 11.4 1.4 14 0 5.8-3.3 14.1-13.4 19.6-17.9 7.8-6.5 10.4-14.3 13.5-24.1 3.4-10.9 2.9-24.2 3-26.5z" fill="#d79468" stroke-width="none" opacity="1" stroke="none"></path><path id="SvgjsPath48120" d="M73.5 133.4c5.5 4.6 13.8 14.7 19.6 17.9 2.6 1.4 11.4 1.4 14 0 5.8-3.3 14.1-13.4 19.6-17.9 7.8-6.5 10.4-14.3 13.5-24.1 3.4-10.9 2.9-24.2 3-26.5v-.3C141.9 52 122.5 35.2 100 35.2S58.1 52.1 56.9 82.6v.3c0 2.4-.5 15.6 3.1 26.5 3.2 9.8 5.7 17.5 13.5 24zM58 89.6c-.2-3.3-.3-6.7 0-10 .4-6.6 1.9-13.2 4.7-19.2 2.8-5.9 6.9-11.2 12.1-15.1C80 41.5 86 39.1 92.2 38c6.2-1 12.6-.7 18.6.9 6.1 1.5 11.7 4.6 16.6 8.7l.9.8c.3.3.6.6.9.8l1.7 1.7c.6.5 1 1.2 1.6 1.8l1.5 1.9c.9 1.4 1.8 2.8 2.6 4.2l1.1 2.2c.4.7.8 1.4 1 2.2 2.6 6.1 3.9 12.7 4.2 19.5-.1 3.4-.1 6.7-.4 10.1-.3 3.4-.7 6.6-1.5 9.9-.4 1.6-.8 3.3-1.3 4.8s-1.1 3.2-1.7 4.7c-1.2 3.2-2.5 6.2-4 9-1.6 2.8-3.4 5.4-5.6 7.5-.5.6-1.1 1-1.7 1.6l-1.9 1.5c-1.4 1.1-2.6 2.2-3.8 3.5-2.5 2.3-4.8 4.7-7.1 6.9s-4.8 4.5-7.2 6.1c-.3.2-1.8 1.3-8 1.1-.8 0-1.5-.1-2.2-.2-.7-.1-3-1.2-3.3-1.4-.6-.4-1.2-.9-1.8-1.3-2.4-1.9-4.8-4.3-7.1-6.6-2.4-2.3-4.7-4.7-7.3-7-.6-.6-1.3-1.1-2-1.7-.6-.5-1.2-1-1.7-1.5-1.1-1-2.2-2.2-3.1-3.5-1.9-2.4-3.4-5.3-4.7-8.2-1.3-3-2.4-6.1-3.6-9.3-1.1-3.1-1.9-6.2-2.5-9.5-.8-3-1.2-6.2-1.4-9.6z" fill="#a9561f" stroke-width="none" opacity="1" stroke="none"></path></g></g><g id="svga-group-mouth-single-move" transform="matrix(1,0,0,1,0,0)"><g id="svga-group-mouth-single" transform="matrix(1,0,0,1,0,0)"><path id="SvgjsPath48235" d="M84.13 121.38s.02 2.5 1.11 4.36c0 0 4.32 4.53 9.9 8.4.19.14 8.24 1.16 10.36.41 0 0 8.36-5.19 10.19-9.12 0 0 .66-1.94.41-3.27 0 0-6.34 1.76-9.33 2.2-2.99.45-10.62 0-14.41-.57-3.8-.57-7.27-1.92-8.23-2.41z" fill="#000000" stroke-width="none" opacity="1" transform="translate(0 2)"></path><path id="SvgjsPath48236" d="M106.75 124.35c-2.99.45-10.62 0-14.41-.57-3.79-.57-7.26-1.92-8.22-2.41 0 0 .02 2.5 1.11 4.36l.19.19c1.51 1.07 3.66 2.31 6.2 2.99 5.05 1.36 15.17 1.9 22.14-1.92.58-.32 1.09-.63 1.57-.95.14-.21.25-.43.34-.64 0 0 .66-1.94.41-3.27.01.02-6.34 1.79-9.33 2.22z" fill="#ffffff" stroke-width="none" opacity="1" transform="translate(0 2)"></path><path id="SvgjsPath48237" d="M116.59 121.88c.16-.2 0-.49-.28-.48-1.71.52-2.76.73-4.08 1.09-1.18.32-9.11 1.01-11.89.99-9.17-.2-13.39-1.67-16.1-2.4-.22-.06-.44.18-.34.34-.21 1.26 1.06 4.43 1.06 4.45 2.41 3.32 6.15 6.2 9.6 8.45 2.45 1.59 9.23 1.33 10.89.76 2.36-.89 4.78-3.17 6.36-4.68 1.46-1.4 3.54-4 4.23-5.1.29-.44.46-.97.57-1.48.13-.52.3-1.38-.02-1.94zm-5.54 8.28c-2.42 2.24-5.67 3.61-5.82 3.62-1.9.17-3.8.26-5.72.19-1.36-.05-4.19-.4-4.31-.48-1.83-.93-3.63-2.15-5.26-3.53-1.59-1.34-3.52-2.92-4.56-4.42-.65-1.11-1.02-2.25-.86-3.72 4.7 2.47 10.68 3.54 15.92 3.58 2.85.02 5.63-.36 8.4-.92 2.13-.43 5.04-.89 7-2.08-.03.32-.02.66-.07.97-.09.56.23 2.27-4.72 6.79z" fill="#a06b59" stroke-width="none" opacity="1" transform="translate(0 2)"></path></g></g><g id="svga-group-eyes-left-move" transform="matrix(1,0,0,1,0,0)"><g id="svga-group-eyes-left" transform="matrix(1,0,0,1,0,0)"><g id="svga-group-eyesback-left"><path id="SvgjsPath48073" d="M89.9 95.2s-.4-2-1.4-3.1c-1-1-5.3-3-8.5-3.7 0 0-3.8 1.6-6.6 5-2.8 3.5-3.2 5.3-3.2 5.3s4.8.7 7.1.7 7.7-1.1 9.8-2.4c2.2-1.3 2.8-1.8 2.8-1.8z" fill="#ffffff" stroke-width="none" opacity="1"></path></g><g id="svga-group-eyesiriswrapper-left" transform="matrix(1,0,0,1,0,0)"><g id="svga-group-eyesiriscontrol-left" transform="matrix(1,0,0,1,0,0)"><g id="svga-group-eyesiris-left" transform="matrix(1,0,0,1,0,0)"><path id="SvgjsPath48133" d="M80.1 88.4c2.8 0 5.2 2.3 5.2 5.2s-2.3 5.2-5.2 5.2-5.2-2.3-5.2-5.2 2.3-5.2 5.2-5.2z" fill="#7085b3" stroke-width="none" opacity="1"></path><path id="SvgjsPath48134" d="M80.1 90.8c1.5 0 2.8 1.2 2.8 2.8s-1.2 2.8-2.8 2.8-2.8-1.2-2.8-2.8 1.2-2.8 2.8-2.8z" fill="#000000" stroke-width="none" opacity="1"></path><path id="SvgjsPath48135" d="m79.4 91.3-.6-.6c-.2-.2-.4-.3-.7-.3-.2 0-.5.1-.7.3-.2.2-.3.4-.3.7s.1.5.3.7l.6.6c.2.2.4.3.7.3.2 0 .5-.1.7-.3.3-.5.4-1.1 0-1.4zm2.5 4.7c.9 0 .9-1.4 0-1.4s-.8 1.4 0 1.4z" fill="#ffffff" stroke-width="none" opacity="1"></path></g></g></g><g id="svga-group-eyesfront-left"><path id="SvgjsPath48081" d="M69.4 94.6c0 6.4 4.7 11.5 10.6 11.5s10.6-5.2 10.6-11.5S85.9 83.1 80 83.1s-10.6 5.1-10.6 11.5zm.9 4.1s.4-1.8 3.2-5.3c2.8-3.5 6.6-5 6.6-5 3.1.7 7.5 2.6 8.5 3.7s1.4 3.1 1.4 3.1-.7.5-2.8 1.8c-2.1 1.3-7.5 2.4-9.8 2.4-2.3.1-7.1-.7-7.1-.7z" fill="#d79468" stroke-width="none" opacity="1" stroke="none"></path><path id="SvgjsPath48082" d="m89.6 95.6.9-.6v.1c.8 4.4-3.8 7.5-7.4 8.8-.2.1-.3-.2-.1-.3 2.9-2 7.2-4.2 6.6-8z" fill="#c87d4d" stroke-width="none" opacity="1" stroke="none"></path><path id="SvgjsPath48083" d="M69.1 100.9c.5-.6.9-1.2 1.3-1.9 6.3 1.8 14.9.8 20-3.9l.1-.1c.1-.1.1-.1.1-.2-.8-4.1-5.4-6.1-9.2-6.5 2.4-.8 5-.8 7.8-.5.6.1.8-.9.3-1.2-8.7-4.4-18.4 6.6-21 13.8-.3.7.4.9.6.5zm1.7-2.4c1.8-2.8 3.4-5.7 6.2-7.8 1.1-.8 2.2-1.4 3.3-1.8l.1.1c3.3 1.2 7.7 1.7 9 5.7.1.2.1.4.2.6-2.9 1.8-6.1 3.3-9.4 3.6-3.2.2-6.3-.5-9.4-.4z" fill="#587d90" stroke-width="none" opacity="1" stroke="none"></path></g></g></g><g id="svga-group-eyes-right-move" transform="matrix(1,0,0,1,0,0)"><g id="svga-group-eyes-right" transform="matrix(1,0,0,1,0,0)"><g id="svga-group-eyesback-right"><path id="SvgjsPath48074" d="M110.1 95.2s.4-2 1.4-3.1c1-1 5.3-3 8.5-3.7 0 0 3.8 1.6 6.6 5 2.8 3.5 3.2 5.3 3.2 5.3s-4.8.7-7.1.7-7.7-1.1-9.8-2.4c-2.2-1.3-2.8-1.8-2.8-1.8z" fill="#ffffff" stroke-width="none" opacity="1"></path></g><g id="svga-group-eyesiriswrapper-right" transform="matrix(1,0,0,1,0,0)"><g id="svga-group-eyesiriscontrol-right" transform="matrix(1,0,0,1,0,0)"><g id="svga-group-eyesiris-right" transform="matrix(1,0,0,1,0,0)"><path id="SvgjsPath48136" d="M119.9 88.4c2.8 0 5.2 2.3 5.2 5.2s-2.3 5.2-5.2 5.2-5.2-2.3-5.2-5.2 2.4-5.2 5.2-5.2z" fill="#7085b3" stroke-width="none" opacity="1"></path><path id="SvgjsPath48137" d="M119.9 90.8c1.5 0 2.8 1.2 2.8 2.8s-1.2 2.8-2.8 2.8-2.8-1.2-2.8-2.8 1.3-2.8 2.8-2.8z" fill="#000000" stroke-width="none" opacity="1"></path><path id="SvgjsPath48138" d="m119.3 91.3-.6-.6c-.2-.2-.4-.3-.7-.3-.2 0-.5.1-.7.3-.2.2-.3.4-.3.7s.1.5.3.7l.6.6c.2.2.4.3.7.3.2 0 .5-.1.7-.3.3-.5.4-1.1 0-1.4zm2.5 4.7c.9 0 .9-1.4 0-1.4s-.9 1.4 0 1.4z" fill="#ffffff" stroke-width="none" opacity="1"></path></g></g></g><g id="svga-group-eyesfront-right"><path id="SvgjsPath48084" d="M120 83.1c-5.9 0-10.6 5.2-10.6 11.5s4.7 11.5 10.6 11.5 10.6-5.2 10.6-11.5-4.8-11.5-10.6-11.5zm2.6 16.3c-2.3 0-7.7-1.1-9.8-2.4-2.1-1.3-2.8-1.8-2.8-1.8s.4-2 1.4-3.1 5.3-3 8.5-3.7c0 0 3.8 1.6 6.6 5 2.8 3.5 3.2 5.3 3.2 5.3s-4.8.8-7.1.7z" fill="#d79468" stroke-width="none" opacity="1" stroke="none"></path><path id="SvgjsPath48087" d="m110.4 95.6-.9-.6v.1c-.8 4.4 3.8 7.5 7.4 8.8.2.1.3-.2.1-.3-2.9-2-7.2-4.2-6.6-8z" fill="#c87d4d" stroke-width="none" opacity="1" stroke="none"></path><path id="SvgjsPath48088" d="M131.6 100.6c-2.6-7.3-12.3-18.2-21-13.8-.5.3-.3 1.2.3 1.2 2.7-.3 5.3-.3 7.8.5-3.8.4-8.5 2.4-9.2 6.5 0 .1 0 .1.1.2l.1.1c5.1 4.7 13.7 5.7 20 3.9.4.6.8 1.3 1.3 1.9.1.2.8 0 .6-.5zm-11.7-1.8c-3.4-.3-6.6-1.9-9.4-3.6 0-.2.1-.4.2-.6 1.3-4 5.7-4.4 9-5.7l.1-.1c1.1.4 2.2 1 3.3 1.8 2.8 2.1 4.4 5 6.2 7.8-3.2 0-6.3.7-9.4.4z" fill="#587d90" stroke-width="none" opacity="1" stroke="none"></path></g></g></g><g id="svga-group-facehighlight-single"></g><g id="svga-group-eyebrows-left-move" transform="matrix(1,0,0,1,0,0)"><g id="svga-group-eyebrows-left-rotate" transform="matrix(1,0,0,1,0,0)"><g id="svga-group-eyebrows-left" transform="matrix(1,0,0,1,0,0)"><path id="SvgjsPath47987" d="M68.1 77.9c1.1 0 2.4-.3 3.5-.4 1.2-.1 2-.5 3.2-.1.5-.1 1.1-.1 1.6-.2.8-.2 1.3-.3 2.1-.1 1.1-.3 2.3-.5 3.5-.5 1.5-.1 3.2-.4 4.7 0h.1c.1 0 .1-.1.2-.1.2-.1.4 0 .5.1 0 0 .1 0 .1-.1.1-.1.3-.1.4 0h.2c.1-.1.1-.2.2-.3.3-.3.8.1.6.4-.1.1-.1.2-.2.3v.2c-.1.3-.2.6-.2.9.5-.4.9-.8 1.4-1.2.2-.1.4.1.3.2 0 .1-.1.2-.2.4.1-.1.3-.1.4-.1.1 0 .2 0 .3-.1.3-.1.6 0 .8-.1h.2c.1-.1.2-.2.3-.2.3-.2.6.2.5.5-.2.3-.3.6-.5.9v.1c.7 1.3.2 3.1-.3 4.5.1.3 0 .6-.3.8-.1.3-.4.4-.6.4-.3.3-.8.4-1.3.5-.6.3-1.1.4-1.7.4-.7.2-1.4.3-2.1.3h-1.2c-.1 0-.2 0-.4-.1-.8.7-2.2.7-3.1 0-.8 0-1.5-.1-2.2-.2-.8-.1-1.8-.2-2.7-.4-1.1.4-2.6.2-3.7-.5-.6.3-1.4.1-2 0-.1 0-.2-.1-.3-.1h-.1c-.7-.1-1.5-.2-2.2-.3-.5-.1-.7-.6-.7-1-.1-1.3-.2-2.6-.2-3.9.1-.4.6-.9 1.1-.9z" fill="#caa478" stroke-width="none" opacity="1"></path><path id="SvgjsPath47988" d="M88.7 84.8c.7-.9 1.6-1.5 2.2-2.5.6-1 .9-2 1.2-3.1.1-.2.4-.2.4.1 0 2.1-1.3 5.2-3.5 5.9-.3.1-.4-.2-.3-.4zm-1.8-.2c2-2.2 3.5-4.2 4.4-7.1.1-.3.5-.2.4.1-.5 2.8-2.1 5.8-4.5 7.4-.2.2-.5-.2-.3-.4zm-2 .3c.8-1.3 1.5-2.7 2-4.2.4-1.4.4-2.7.6-4.1 0-.2.4-.2.5 0 .9 2.7-1.1 6.5-2.8 8.5-.1.1-.4 0-.3-.2zm-1.6.1c1.6-2.5 2.6-5.3 3.8-8 .1-.1.3 0 .2.1-.3 1.7-.9 3.3-1.6 4.9-.5 1.2-.9 2.5-2 3.3-.3.2-.6 0-.4-.3zm-1.7-.1c1.1-2.7 1.7-5.5 1.6-8.4 0-.5.7-.5.7 0 .1 3-.5 5.9-2 8.5-.1.2-.4.1-.3-.1zm-3-7.5c1.8 1.6 2.3 5.3 1.5 7.5-.1.2-.3.1-.3 0 0-1.3.1-2.6-.2-3.9-.3-1.2-.9-2.2-1.3-3.3-.1-.3.1-.4.3-.3zm-3 .6c1.3 1.9 1.2 4.6.7 6.7 0 .2-.3.1-.3 0 0-2.3 0-4.3-.8-6.5-.1-.2.3-.4.4-.2zm-6.9.9c1.1.7 2.1 1.7 2.9 2.8.5.7 1.7 1.9 1.6 2.8 0 .1-.1.2-.2.2h-.1c-.1 0-.1-.1-.1-.2v-.1c0-.1.1-.1.1-.2-.1 0-.2-.1-.2-.1-.1-.2-.2-.3-.2-.4l-.3-.6c-.4-.6-.8-1.1-1.2-1.6-.5-.6-1.1-1.1-1.6-1.6.9 1.2 2.1 2.7 2 4.2 0 .2-.2.2-.3 0-.4-1.6-1.4-2.9-2.2-4.4-.1-.1 0-.2.1-.2-.1-.2-.3-.3-.4-.5-.1 0 0-.2.1-.1z" fill="#d9ba97" stroke-width="none" opacity="1"></path><path id="SvgjsPath47989" d="M88.1 85.4c1.3-.1 2.5-.4 3.6-1.1v.5c0 .2.3.3.4.1.4-1.1.5-2.3.6-3.5.1-1.4.1-2.8 0-4.3.2-.1.1-.5-.1-.5-.5 0-1 .1-1.6.2-.2 0-.4 0-.6.1l.3-.6c.1-.3-.3-.5-.4-.2-.2.4-.5.8-.7 1.2-.3.4-.6.7-.8 1-.1.1-.1.2 0 .3l.1.1c.1.1.3 0 .4-.1.3-.3.6-.6.8-1 .3.1.6 0 1-.1.5-.1.9-.1 1.4-.3v.2c-.1-.1-.3-.1-.3 0-.7 1.3-1.1 2.8-1.8 4.1-.7 1.2-1.7 2.2-2.6 3.3-.5 0-1.1 0-1.6.1h-2.8c1.8-2.4 3-5.4 3.7-8.3.6-.1 1.2-.1 1.8-.2l-.3.3c-.3.4-.7.8-.7 1.3 0 .2.3.3.5.2.3-.3.4-.8.7-1.1.2-.4.6-.7.9-1.1.2-.2-.1-.5-.3-.4-.1.1-.3.2-.4.3h-.1c-3.6-.4-7.5.1-11.1.4-3.5.3-7.1.7-10.6 1.2-.3 0-.3.3-.3.5-.1 0-.2.1-.2.2-.4 1.7-.3 3.7.3 5.3-.1.2-.1.4.2.5 4.2 1 8.6 1.4 12.9 1.5v.1c-.1.2.3.3.4.2.1-.1.1-.2.2-.3h.4c2.2.2 4.4.1 6.7-.1zm3.6-1.7c-.9.7-1.9 1-3 1.2 1.7-1.3 3.1-3.7 3.6-5.8-.1.7-.1 1.3-.2 1.9-.1.8-.3 1.8-.4 2.7zm-13.1-6.6s-.1.1 0 .2c.1 2.2-.2 4.3-.3 6.5 0 .2.3.3.4.1.9-2 .9-4.6.5-6.7 0 0 0-.1-.1-.1 1.3-.1 2.6-.2 3.9-.2-.3 1.5-.6 2.9-1 4.3-.4 1.3-1 2.4-1.4 3.7h-.3c-4.3-.2-8.4-.9-12.6-1.5-.1-.8-.2-1.6-.2-2.4 0-.9.1-1.8.1-2.7h.1c3.6-.5 7.2-.9 10.9-1.2zm4.1 7.9h-1.4c1.3-2.3 1.9-5.4 2.1-8.1 1.1-.1 2.1-.1 3.2-.2-.9 2.9-2.2 5.4-3.8 8-.1.1-.1.2-.1.3z" fill="#bb8f5c" stroke-width="none" opacity="1"></path></g></g></g><g id="svga-group-eyebrows-right-move" transform="matrix(1,0,0,1,0,0)"><g id="svga-group-eyebrows-right-rotate" transform="matrix(1,0,0,1,0,0)"><g id="svga-group-eyebrows-right" transform="matrix(1,0,0,1,0,0)"><path id="SvgjsPath47990" d="M131.9 77.9c-1.1 0-2.4-.3-3.5-.4-1.2-.1-2-.5-3.2-.1-.5-.1-1.1-.1-1.6-.2-.8-.2-1.3-.3-2.1-.1-1.1-.3-2.3-.5-3.5-.5-1.5-.1-3.2-.4-4.7 0h-.1c-.1 0-.1-.1-.2-.1-.2-.1-.4 0-.5.1 0 0-.1 0-.1-.1-.1-.1-.3-.1-.4 0h-.2c-.1-.1-.1-.2-.2-.3-.3-.3-.8.1-.6.4.1.1.1.2.2.3v.2c.1.3.2.6.2.9-.5-.4-.9-.8-1.4-1.2-.2-.1-.4.1-.3.2 0 .1.1.2.2.4-.1-.1-.3-.1-.4-.1-.1 0-.2 0-.3-.1-.3-.1-.6 0-.8-.1h-.2c-.1-.1-.2-.2-.3-.2-.3-.2-.6.2-.5.5.2.3.3.6.5.9v.1c-.7 1.3-.2 3.1.3 4.5-.1.3 0 .6.3.8.1.3.4.4.6.4.3.3.8.4 1.3.5.6.2 1.1.3 1.7.2.7.2 1.4.3 2.1.3h1.2c.1 0 .2 0 .4-.1.8.7 2.2.7 3.1 0 .8 0 1.5-.1 2.2-.2.8-.1 1.8-.2 2.7-.4 1.1.4 2.6.2 3.7-.5.6.3 1.4.1 2 0 .1 0 .2-.1.3-.1h.1c.7-.1 1.5-.2 2.2-.3.5-.1.7-.6.7-1 .1-1.3.2-2.6.2-3.9-.1-.2-.6-.7-1.1-.7z" fill="#caa478" stroke-width="none" opacity="1"></path><path id="SvgjsPath47991" d="M111.3 84.8c-.7-.9-1.6-1.5-2.2-2.5-.6-1-.9-2-1.2-3.1-.1-.2-.4-.2-.4.1 0 2.1 1.3 5.2 3.5 5.9.3.1.4-.2.3-.4zm1.8-.2c-2-2.2-3.5-4.2-4.4-7.1-.1-.3-.5-.2-.4.1.5 2.8 2.1 5.8 4.5 7.4.2.2.5-.2.3-.4zm2 .3c-.8-1.3-1.5-2.7-2-4.2-.4-1.4-.4-2.7-.6-4.1 0-.2-.4-.2-.5 0-.9 2.7 1.1 6.5 2.8 8.5.1.1.4 0 .3-.2zm1.6.1c-1.6-2.5-2.6-5.3-3.8-8-.1-.1-.3 0-.2.1.3 1.7.9 3.3 1.6 4.9.5 1.2.9 2.5 2 3.3.3.2.6 0 .4-.3zm1.7-.1c-1.1-2.7-1.7-5.5-1.6-8.4 0-.5-.7-.5-.7 0-.1 3 .5 5.9 2 8.5.1.2.4.1.3-.1zm3-7.5c-1.8 1.6-2.3 5.3-1.5 7.5.1.2.3.1.3 0 0-1.3-.1-2.6.2-3.9.3-1.2.9-2.2 1.3-3.3.1-.3-.1-.4-.3-.3zm3 .6c-1.3 1.9-1.2 4.6-.7 6.7 0 .2.3.1.3 0 0-2.3 0-4.3.8-6.5.1-.2-.3-.4-.4-.2zm6.9.9c-1.1.7-2.1 1.7-2.9 2.8-.5.7-1.7 1.9-1.6 2.8 0 .1.1.2.2.2h.1c.1 0 .1-.1.1-.2v-.1c0-.1-.1-.1-.1-.2.1 0 .2-.1.2-.1.1-.2.2-.3.2-.4l.3-.6c.4-.6.8-1.1 1.2-1.6.5-.6 1.1-1.1 1.6-1.6-.9 1.2-2.1 2.7-2 4.2 0 .2.2.2.3 0 .4-1.6 1.4-2.9 2.1-4.4.1-.1 0-.2-.1-.2.1-.2.3-.3.4-.5.2 0 .1-.2 0-.1z" fill="#d9ba97" stroke-width="none" opacity="1"></path><path id="SvgjsPath47992" d="M118.7 85.6h.4c.1.1.1.2.2.3.1.2.5.1.4-.2v-.1c4.3-.1 8.8-.5 12.9-1.5.3-.1.3-.3.2-.5.6-1.6.7-3.7.3-5.3 0-.1-.1-.2-.2-.2.1-.2 0-.4-.3-.5-3.5-.5-7.1-.9-10.6-1.2-3.6-.3-7.5-.8-11.1-.4h-.1c-.1-.1-.2-.2-.4-.3-.2-.2-.5.2-.3.4.3.3.6.7.9 1.1.2.3.4.8.7 1.1.2.2.5.1.5-.2 0-.5-.4-1-.7-1.3l-.3-.3c.6.1 1.2.2 1.8.2.7 2.9 1.9 5.9 3.7 8.3h-2.8c-.5 0-1.1 0-1.6-.1-.8-1.1-1.8-2.1-2.6-3.3-.8-1.3-1.2-2.7-1.8-4.1-.1-.1-.2-.1-.3 0v-.2c.5.1.9.2 1.4.3.3.1.7.1 1 .1.2.4.5.7.8 1 .1.1.2.1.4.1l.1-.1c.1-.1.1-.2 0-.3-.2-.4-.6-.7-.8-1-.3-.4-.5-.8-.7-1.2-.2-.3-.5 0-.4.2l.3.6c-.2 0-.4 0-.6-.1-.5-.1-1-.2-1.6-.2-.3 0-.3.3-.1.5-.1 1.4-.1 2.8 0 4.3.1 1.2.1 2.4.6 3.5.1.2.4.1.4-.1v-.5c1 .7 2.2 1 3.6 1.1 2.2.1 4.4.2 6.7.1zm-10.8-4.7c-.1-.7-.1-1.3-.2-1.9.5 2.1 1.9 4.5 3.6 5.8-1.1-.1-2.1-.4-3-1.2-.1-.8-.3-1.8-.4-2.7zm24.5-2.6h.1c0 .9.2 1.8.1 2.7 0 .8-.1 1.6-.2 2.4-4.2.6-8.3 1.3-12.6 1.5h-.3c-.5-1.2-1-2.4-1.4-3.7-.4-1.4-.7-2.9-1-4.3 1.3.1 2.6.1 3.9.2 0 0 0 .1-.1.1-.4 2.1-.4 4.7.5 6.7.1.2.4.1.4-.1-.1-2.2-.4-4.3-.3-6.5v-.2c3.6.3 7.2.7 10.9 1.2zm-15.1 6.4c-1.6-2.6-2.9-5.2-3.8-8 1.1.1 2.1.1 3.2.2.1 2.6.7 5.7 2.1 8.1h-1.4c-.1-.1-.1-.2-.1-.3z" fill="#bb8f5c" stroke-width="none" opacity="1"></path></g></g></g><g id="svga-group-beardwrap" transform="matrix(1,0,0,1,0,0)"><g id="svga-group-beard-single-move" transform="matrix(1,0,0,1,0,0)"><g id="svga-group-beard-single" transform="matrix(1,0,0,1,0,0)"></g></g></g><g id="svga-group-mustache-single-move" transform="matrix(1,0,0,1,0,0)"><g id="svga-group-mustache-single" transform="matrix(1,0,0,1,0,0)"></g></g><g id="svga-group-nose-single-move" transform="matrix(1,0,0,1,0,0)"><g id="svga-group-nose-single" transform="matrix(1,0,0,1,0,0)"><path id="SvgjsPath48173" d="M105.29 106.89c.58.27 1.23 1.04 1.94 3.17s1.23 3.69 1.37 4.83c.14 1.14-.99 2.32-1.71 2.46s-1.28-.33-1.56-1.09-.38-1.89-1.23-2.42c0 0-.81 2.27-1.52 2.79s-1.94 1.71-3.65.85c-1.71-.85-1.94-2.08-2.08-2.13-.14-.05-1.28 1.52-1.85 1.89-.57.38-2.37.95-3.13 0-.76-.95-.09-4.59.09-5.73.19-1.14.9-3.74 1.61-4.36.71-.62 1.71-.76 2.37-.33 0 0 .14-3.17.52-4.64.38-1.47 2.37-2.08 4.22-1.89s3.17.71 3.5 1.8c.35 1.1.4 4.46 1.11 4.8z" fill="#d79468" stroke-width="none" opacity="1" transform="translate(0 1)" stroke="none"></path><path id="SvgjsPath48174" d="M96.01 116.09c-.3.22-.45.35-.75.57-.21.16-.43.32-.64.48-.58.5-1.14.44-1.69-.18-1.07-.57-1.09-.69-1.06-1.78.01-.5.08-1.02.14-1.52.17-1.47.94-7.73 3.61-6.8h.02c0 .31 0 .61.01.92.01.27.42.35.48.07.69-2.93.68-6.14.96-9.14.3-3.15.99-6.54.77-9.7-.01-.15-.23-.2-.28-.04-.78 2.89-.76 6.14-1.06 9.11-.28 2.74-.82 5.61-.88 8.4-3.37-1.25-4.22 6.04-4.41 7.99-.13 1.31-.17 3.14 1.35 3.68 1.5.53 2.91-.64 3.66-1.82.1-.14-.09-.34-.23-.24z" fill="#a9561f" stroke-width="none" opacity="1" transform="translate(0 1)" stroke="none"></path><path id="SvgjsPath48175" d="M105.17 115.05c.11.18.15.22.3.33.11.08.26.01.33-.09.03-.04.05-.08.07-.12.07-.16-.01.02.02-.09.03-.15.03-.25-.03-.4-.09-.24-.26-.46-.45-.62-.32-.27-.74-.44-1.16-.4.01-.1.03-.2.03-.29 0-.18-.24-.24-.33-.09-.89 1.4-1.09 3.44-2.94 4.03-2.21.71-3.7-1.7-4.66-3.3.07-.1.08-.25-.02-.33-.86-.72-2.64.33-2.55 1.42.03.3.34.42.57.24.32-.25.51-.6.87-.8.26-.14.54-.23.81-.35.74 2.01 2.24 4.33 4.72 3.96 1.81-.27 3.09-2.13 3.43-3.9.28.08.54.19.75.42.09.11.16.25.24.38z" fill="#a9561f" stroke-width="none" opacity="1" transform="translate(0 1)" stroke="none"></path><path id="SvgjsPath48176" d="M107.09 109.08c-.39-.91-.85-2.69-2.05-2.36.04-1.46-.39-2.97-.53-4.42-.14-1.35-.13-2.72-.32-4.07-.02-.12-.17-.07-.19.03-.22 1.63-.03 3.34.18 4.97.15 1.17.26 2.44.77 3.52-.05.02-.1.03-.15.05-.12.06-.03.22.08.2 1.32-.24 2.37 3.95 2.68 4.9.28.87.64 1.86.66 2.78.03 1.4-1.56 3.39-2.71 1.5-.14-.24-.45-.07-.42.18.14.97 1.15 1.48 2.07 1.24 1.25-.33 1.77-1.73 1.71-2.91-.08-1.88-1.05-3.9-1.78-5.61z" fill="#a9561f" stroke-width="none" opacity="1" transform="translate(0 1)" stroke="none"></path><path id="SvgjsPath48177" d="M103.73 108.8c-.04-1.57-.42-3.09-.82-4.6-.39-1.48-.61-3.13-1.39-4.47-.18-.31-.73-.28-.8.11-.45 2.35.25 5.03.38 7.41.06 1.21.11 2.45-.17 3.63-.26 1.1-.87 2.06-1.2 3.13-.17.55.41 1.19.98.98 2.41-.87 3.07-3.87 3.02-6.19z" fill="#dfa077" stroke-width="none" opacity="1" transform="translate(0 1)" stroke="none"></path></g></g><g id="svga-group-hair-front" transform="matrix(1,0,0,1,0,0)"><path id="SvgjsPath48214" d="M146.8 58.2c-.3-1-.6-2.1-1-3.1-.1-5.4-4.8-11-10.5-14 .5-.1.8-.7.4-1.2-2.8-3.6-7.8-4.1-11.7-2.3l-.1-.1c-1.3-2.7-3.3-5-5.4-6.7-.4-.4-1.1.2-.7.6 1.1 1.1 2 2.3 2.7 3.6-.2-.1-.4-.2-.5-.3-4.7-6-14.1-8.7-21.2-7.8-.7.1-.8 1-.2 1.2.8.3 1.7.6 2.6.9h-2.6c-2.7-.4-5.5-.4-8.2-.1-15.2-.1-31.3 7.4-36.2 21.8-3.8 6-5.6 13-4.2 20.1-.3 5 .3 10.1 2 14.4.2 1.7.6 3.5 1.2 5.1 1.1 7.3 3.5 14.5 7.9 20.5.3.5 1 .1.8-.4-1.1-2.4-2.1-4.8-3-7.1.2-.1.4-.2.5-.5.3 1.1.5 2.2.9 3.2.1.2.5.2.5-.1 0-2.4 0-4.8-.1-7.2.1.7.2 1.4.3 2.2.1.4.7.3.7-.1-.2-4.2-.2-8.4 0-12.5.3-2.3.6-4.7 1-7 .2-.3.3-.7.5-1-1 4-1.6 8.2-1.1 12.1 0 .3.5.4.6.1 2-5.8 2.6-12 4.5-17.9.7-2.1 1.4-4.1 2.2-6.1.8-.9 1.7-1.9 2.6-2.8.5-.3.9-.6 1.4-.9-3.9 4.9-6.7 10.5-7.6 15.9-.1.3.4.5.6.2 1.6-2.6 3.1-5.2 4.6-7.7.1.1.3.1.5 0 .5-.4 1.1-.8 1.6-1.1.2.1.4.1.6 0 1.2-.6 2.4-1.3 3.7-1.9-.3.4.2 1 .7.9 3.8-.6 7.4-1.9 11-3.4-1.7 1.2-3.4 2.5-5 3.9-1.3.8-2.5 1.7-3.7 2.8-.5.5.1 1.2.7.9 6.2-3.3 13.1-6.1 19.8-9.3-4.4 2.5-8.9 4.6-13.4 6.9-.4.2-.1.9.3.7 3.8-1.4 7.9-3 11.8-4.8-1.4 1.2-2.9 2.5-4.1 3.8-.6.5-1.3.9-1.9 1.4-.7.6.1 1.7.8 1.4 1.2-.4 2.5-.8 3.8-1.3.1.1.3.1.5.1 5.9-1.1 11.7-5.1 16.3-8.8.8-.6 1.5-1.3 2.2-2-1.4 1.7-3.1 3.2-5.2 4.5-.6.4-.1 1.4.6 1 3.7-1.9 7.2-5 9.7-8.6 1 5.5 3.8 10.7 8.2 13.6 1.9 2.9 3.8 6 5.9 8.9 1.1 2.7 2 5.4 2.7 8.2.1.8.2 1.6.2 2.4.3 6.2-1.6 11.7-4.1 17.3-.3.7.5 1.4 1.1.8 1.3-1.3 2.4-2.8 3.2-4.4.2.1.4 0 .6-.2.2.2.6.2.8-.2.4-.7.8-1.5 1.2-2.2.1-.1.2-.2.2-.3v-.2c2.2-4.9 3.8-10.9 4.5-16.4.2-.8.4-1.5.5-2.2.2 0 .4-.2.4-.4.3-1.1.5-2.2.6-3.4.3-1.6.5-3.2.5-4.8 0 .1.1.2.1.4.1.5.9.4.9-.1.5-6.1-.4-13-3-18.9zM63.9 40.6c-.3.3-.7.5-1 .8 1.5-1.5 3.1-2.8 4.9-4-1.4 1-2.7 2.1-3.9 3.2zm26 24.1c-3.4 1.4-6.8 2.8-10.2 4.3 5.1-2.7 10.1-5.4 15-8.2l-4.8 3.9zm-3.5-5.5c-2.7 1.5-5.4 3.1-8 4.8 3.4-2.7 6.7-5.3 10.7-7.2C91 55.9 93 55 95 54.2c-2.8 1.7-5.7 3.4-8.6 5z" fill="#caa478" stroke-width="none" opacity="1" stroke="none"></path><path id="SvgjsPath48215" d="M125 48.7c-3.7 12.9-15.8 17.5-26.7 22.8-.3.2-.1.7.2.6 11.4-3.9 24.2-10.5 26.8-23.3.1-.3-.2-.4-.3-.1zm-2.2-.7c-3.1 6.3-9.6 9.1-15.6 12.2-6.7 3.4-13.4 6.7-19.9 10.4-.4.2 0 .7.3.5 8.2-3.7 16.2-7.9 24.1-12.1 4.9-2.6 9.6-5.4 11.5-10.8.2-.3-.2-.5-.4-.2zm-2.6.5c-6.8 4.7-14.2 8.1-22.1 10.6-.3.1-.2.5.1.5 8.1-2 15.5-5.7 22.2-10.6.4-.2.1-.7-.2-.5zm-11.8.5c-14.4.8-28.5 6.7-39 16.6-.2.2.1.5.3.3C81 56.6 93.8 51 108.4 49.2c.3 0 .3-.3 0-.2zm-10.7 8.3c-9.4 2.8-18.5 8-25.7 14.7-.3.2.1.6.4.4 7.9-6.3 16-10.8 25.4-14.5.4-.1.3-.7-.1-.6zm-23.9-1c-7.3 9.2-11.9 21.1-12.2 33 0 .4.5.4.6 0 1.6-12 5.3-22.5 12.2-32.5.1-.4-.4-.8-.6-.5zm-8.2 7.2c-5.5 9.6-7.9 20.9-6.1 31.8.1.3.6.3.6-.1-.8-11.1.9-21.5 5.9-31.5.1-.3-.2-.5-.4-.2zm-5.3 40.4c-2.8-9.9-4.1-19.5-2.6-29.7 0-.3-.4-.4-.4-.1-1.7 10-1.4 20.5 2.3 30 .2.4.8.2.7-.2zm5.4-60.6C54.3 52.4 48.2 68.6 52 82.9c.1.3.5.2.5-.1-2.3-14.9 2.2-29 13.6-39 .3-.3-.1-.7-.4-.5zM62 53.6c-6.4 9.1-9.8 20.3-8.3 31.4 0 .3.5.3.5 0-.5-11.3 1.9-21.8 8.2-31.2.1-.3-.2-.5-.4-.2zm48-19.5c-11.6-4.5-26.1-5.4-37.1 1.2-.2.1 0 .4.2.3 12.2-5.6 24.2-4.5 36.8-1 .3.2.5-.4.1-.5zm8.7 4c-3.7-4.8-9.2-7.8-14.9-9.4-.3-.1-.5.4-.1.5 5.7 2 10.2 5.3 14.6 9.3.3.2.6-.1.4-.4zm3.7 2.3c-.6-1-1.5-1.8-2.3-2.7-.9-.9-1.8-1.8-2.8-2.6-.3-.2-.7.2-.4.4l2.7 2.7c.8.8 1.5 1.8 2.4 2.5.2.3.5 0 .4-.3zm-.9-4.3c-.3-.3-.8.1-.6.5.5.7 1 1.5 1.4 2.3.4.8.6 1.7 1 2.5.2.3.6.2.6-.2-.1-1.8-1.3-3.7-2.4-5.1zm13.4 40.7c-6.4-6.4-9.9-14-10-23.2 0-.2-.3-.2-.3 0-.7 9 2.9 17.9 10 23.5.2.2.5-.1.3-.3zm4 2.5c-.1-.3-.6 0-.4.3 1.5 3.3 2.4 6.6 2.8 10-2.9-9.8-9.2-18.4-11.4-28.5-.1-.4-.6-.2-.6.2.8 4.9 2.7 9.2 4.8 13.6 2.8 5.8 4.9 11.7 7.3 17.6.1 4.2-.5 8.5-1.8 12.9-.1.3.4.5.5.2 3.9-8.5 3-18.2-1.2-26.3zm5.3-10.6c-.1-.3-.5-.2-.5.1.8 4.6 1.2 9.1 1 13.7-.3-2.2-.9-4.4-1.7-6.6-.1-.3-.5-.2-.4.1 1.8 7.2 1.9 13.9.3 21.2-.1.4.5.5.6.2 1.1-3.5 1.6-7.1 1.6-10.7 1.1-5.9.9-12.1-.9-18zm-2.9-18.3c-.2-.4-.8 0-.6.3 4.2 7.9 5.9 16 6.5 24.8 0 .4.7.4.7 0 .4-8.7-2.3-17.4-6.6-25.1zm-3.1-4.3c-2.9-3.1-6.8-6-11.3-4.8-.3.1-.2.5.1.4 4.4-.9 7.6 2.2 10.8 4.7.3.3.7-.1.4-.3zm-3.5 16.5c-.2-.3-.6 0-.4.2 2.9 5 4.6 10.2 5.9 15.8.1.3.6.2.5-.1-.7-5.6-2.9-11-6-15.9zM95.2 37.9c-13 1.2-24.9 8.4-31.2 20-.1.2.1.3.2.1 6.7-11.2 17.9-18.7 31-19.8.2 0 .2-.3 0-.3z" fill="#bb8f5c" stroke-width="none" opacity="1" stroke="none"></path><path id="SvgjsPath48216" d="M117.8 46.4c-7 4.5-14.3 7.9-22.2 10.5-.2.1-.1.4.1.4 8-2.1 15.5-5.8 22.2-10.6.3-.1.1-.4-.1-.3zm3.5 1.1c-3.1 6.8-12.9 10-19.4 12.4-.2.1-.1.4.1.3 4.6-1.2 8.9-3.1 13-5.5 2.9-1.7 5.8-3.6 6.8-7 0-.2-.4-.4-.5-.2zm-36.8-1.4c-8.9 4.5-15.6 12.6-19 21.9-.1.3.3.4.4.1 3.9-9.3 10.4-16.2 18.8-21.5.4-.3.1-.7-.2-.5zm12.1-6.5c-7.5.1-14.7 2.7-20.7 7.2-.1.1 0 .3.2.2 4.3-2.7 8.8-4.6 13.5-5.8C82.4 44.3 76 49 70.5 54.5c-.1.1.1.3.2.2 5.8-5.6 12.4-9.8 19.6-13.5.1 0 .1-.2.1-.3 2-.5 4.1-.8 6.3-1.1.2.2.2-.2-.1-.2zm8.7 6.6c-7.7.9-15.5 2.2-22 6.6-.2.1 0 .4.2.3 6.8-3.9 14.3-5.2 21.9-6.6.1 0 .1-.3-.1-.3zm28.8 15.5c-2.5-4-4.7-8-6-12.5-.1-.3-.5-.2-.4.1 1.1 4.6 3 9.1 6.1 12.7.1.1.4-.1.3-.3zm2.2-.4c-1.7-1.6-2.7-4.1-3.8-6.1-1.2-2.1-2.4-4.3-3.6-6.4-.1-.2-.3 0-.3.2 1.2 2.7 2.5 5.3 3.9 7.9.9 1.7 1.7 3.8 3.6 4.7.1 0 .3-.2.2-.3zm2.6.3c-1.9-4.1-4.7-7.9-7.5-11.5-.2-.2-.6.1-.4.3 2.7 3.7 5.1 7.5 7.5 11.3.1.4.5.2.4-.1zm-10-16.6c-.2-.2-.4.1-.3.3 5.9 7.1 11.8 13.7 14.9 22.6.1.2.4.1.4-.1-2.3-9.1-8.6-16.5-15-22.8zM144 63.4c-2.1-6-5.9-11.7-10.6-16-.2-.2-.4.1-.2.2 4.3 5 7.5 10.1 10.3 16 .1.3.6.1.5-.2zM96.1 44.8c-6.8.6-13.3 3.7-18.1 8.5-.1.1.1.3.2.2 5.5-4.2 11.2-6.8 17.9-8.2.3-.1.3-.5 0-.5zm-2.7 2.3c-3.4.7-6.7 2.1-9.6 3.8-.2.1 0 .4.2.3 3.2-1.3 6.3-2.5 9.6-3.7.1-.1 0-.5-.2-.4zm18.9 1.4c-5.3 3.2-11.6 2.8-17.1 5.1-.3.1-.1.7.2.6 5.5-2.3 12.2-1.6 17.1-5.3.2-.2 0-.5-.2-.4zM96.3 37c-9.1-2.1-20 2-27.9 6.5-.2.1 0 .5.2.4C77 40 86.7 36 96.1 37.5c.4 0 .6-.4.2-.5zm-5.7-2c-6.1.2-12 1.6-17.2 4.9-.2.1 0 .4.2.3 5.5-2.6 10.9-4.4 17-4.7.3 0 .3-.5 0-.5zm-3.9-1.7c-2.7-.2-5.5-.1-8 1-.3.1-.2.5.1.5 2.6-.6 5.2-1 7.8-.8.4-.1.4-.7.1-.7z" fill="#d9ba97" stroke-width="none" opacity="1" stroke="none"></path></g><g id="svga-group-glasses-single-move" transform="matrix(1,0,0,1,0,0)"><g id="svga-group-glasses-single" transform="matrix(1,0,0,1,0,0)"></g></g></g></g></g><rect id="svga-credit-rect" width="200" height="15" x="0" y="185" fill="#ecf0f1" opacity="0.5" style="display: none;"></rect><text id="svga-credit-text" font-family="Avenir Next, Roboto, Helvetica, Arial, sans-serif" font-size="10px" text-anchor="start" font-weight="400" size="10px" anchor="start" weight="400" fill="#333333" x="32.3828125" y="182.6015625" style="display: none;"><tspan id="SvgjsTspan47521" dy="13" x="32.3828125">Created on AvatarMaker.com</tspan></text></g></svg>